<mxfile host="65bd71144e">
    <diagram id="tmZ8hblWjkgHWLFb6-XQ" name="第 1 页">
        <mxGraphModel dx="695" dy="515" grid="0" gridSize="10" guides="1" tooltips="1" connect="1" arrows="1" fold="1" page="0" pageScale="1" pageWidth="827" pageHeight="1169" background="#ffffff" math="0" shadow="0">
            <root>
                <mxCell id="0"/>
                <mxCell id="1" parent="0"/>
                <mxCell id="12" value="N1" style="edgeStyle=none;html=1;exitX=1;exitY=0.5;exitDx=0;exitDy=0;entryX=0;entryY=0.5;entryDx=0;entryDy=0;fillColor=#f0a30a;strokeColor=#BD7000;fontColor=#f0efef;" edge="1" parent="1" source="2" target="3">
                    <mxGeometry relative="1" as="geometry"/>
                </mxCell>
                <mxCell id="13" value="N2" style="edgeStyle=none;html=1;exitX=1;exitY=0.5;exitDx=0;exitDy=0;entryX=0;entryY=0.5;entryDx=0;entryDy=0;fillColor=#f0a30a;strokeColor=#BD7000;fontColor=#f0efef;" edge="1" parent="1" source="2" target="4">
                    <mxGeometry relative="1" as="geometry"/>
                </mxCell>
                <mxCell id="14" value="N3" style="edgeStyle=none;html=1;exitX=1;exitY=0.5;exitDx=0;exitDy=0;entryX=0;entryY=0.5;entryDx=0;entryDy=0;fillColor=#f0a30a;strokeColor=#BD7000;fontColor=#f0efef;" edge="1" parent="1" source="2" target="5">
                    <mxGeometry relative="1" as="geometry"/>
                </mxCell>
                <mxCell id="2" value="群A" style="rounded=0;whiteSpace=wrap;html=1;fillColor=#f0a30a;fontColor=#f0efef;strokeColor=#BD7000;" vertex="1" parent="1">
                    <mxGeometry x="23" y="98" width="114" height="246.5" as="geometry"/>
                </mxCell>
                <mxCell id="3" value="用户 A" style="rounded=0;whiteSpace=wrap;html=1;fillColor=#f0a30a;fontColor=#f0efef;strokeColor=#BD7000;" vertex="1" parent="1">
                    <mxGeometry x="303" y="98" width="120" height="49" as="geometry"/>
                </mxCell>
                <mxCell id="4" value="用户 B" style="rounded=0;whiteSpace=wrap;html=1;fillColor=#f0a30a;fontColor=#f0efef;strokeColor=#BD7000;" vertex="1" parent="1">
                    <mxGeometry x="303" y="193" width="120" height="46" as="geometry"/>
                </mxCell>
                <mxCell id="5" value="用户 C" style="rounded=0;whiteSpace=wrap;html=1;fillColor=#f0a30a;fontColor=#f0efef;strokeColor=#BD7000;" vertex="1" parent="1">
                    <mxGeometry x="305" y="291" width="120" height="53" as="geometry"/>
                </mxCell>
                <mxCell id="15" value="未读数" style="text;html=1;strokeColor=none;fillColor=none;align=center;verticalAlign=middle;whiteSpace=wrap;rounded=0;fontColor=#141414;" vertex="1" parent="1">
                    <mxGeometry x="194" y="45" width="60" height="30" as="geometry"/>
                </mxCell>
                <mxCell id="21" style="edgeStyle=none;html=1;exitX=1;exitY=0.5;exitDx=0;exitDy=0;entryX=0;entryY=0.5;entryDx=0;entryDy=0;fontColor=#141414;" edge="1" parent="1" source="17" target="18">
                    <mxGeometry relative="1" as="geometry"/>
                </mxCell>
                <mxCell id="24" value="N1" style="edgeLabel;html=1;align=center;verticalAlign=middle;resizable=0;points=[];fontColor=#fafafa;" vertex="1" connectable="0" parent="21">
                    <mxGeometry x="-0.0841" y="1" relative="1" as="geometry">
                        <mxPoint x="7" y="-5" as="offset"/>
                    </mxGeometry>
                </mxCell>
                <mxCell id="22" style="edgeStyle=none;html=1;exitX=1;exitY=0.5;exitDx=0;exitDy=0;entryX=0;entryY=0.5;entryDx=0;entryDy=0;fontColor=#141414;" edge="1" parent="1" source="17" target="19">
                    <mxGeometry relative="1" as="geometry"/>
                </mxCell>
                <mxCell id="25" value="N2" style="edgeLabel;html=1;align=center;verticalAlign=middle;resizable=0;points=[];fontColor=#fafafa;" vertex="1" connectable="0" parent="22">
                    <mxGeometry x="-0.0935" y="1" relative="1" as="geometry">
                        <mxPoint x="8" as="offset"/>
                    </mxGeometry>
                </mxCell>
                <mxCell id="23" style="edgeStyle=none;html=1;exitX=1;exitY=0.5;exitDx=0;exitDy=0;entryX=0;entryY=0.5;entryDx=0;entryDy=0;fontColor=#141414;" edge="1" parent="1" source="17" target="20">
                    <mxGeometry relative="1" as="geometry"/>
                </mxCell>
                <mxCell id="26" value="N3" style="edgeLabel;html=1;align=center;verticalAlign=middle;resizable=0;points=[];fontColor=#fafafa;" vertex="1" connectable="0" parent="23">
                    <mxGeometry x="-0.1388" y="3" relative="1" as="geometry">
                        <mxPoint x="12" y="6" as="offset"/>
                    </mxGeometry>
                </mxCell>
                <mxCell id="17" value="用户 A" style="rounded=0;whiteSpace=wrap;html=1;fillColor=#f0a30a;fontColor=#f0efef;strokeColor=#BD7000;" vertex="1" parent="1">
                    <mxGeometry x="27" y="539" width="120" height="53" as="geometry"/>
                </mxCell>
                <mxCell id="18" value="用户 B" style="rounded=0;whiteSpace=wrap;html=1;fillColor=#f0a30a;fontColor=#f0efef;strokeColor=#BD7000;" vertex="1" parent="1">
                    <mxGeometry x="307" y="427" width="120" height="53" as="geometry"/>
                </mxCell>
                <mxCell id="19" value="用户 C" style="rounded=0;whiteSpace=wrap;html=1;fillColor=#f0a30a;fontColor=#f0efef;strokeColor=#BD7000;" vertex="1" parent="1">
                    <mxGeometry x="310" y="525" width="120" height="53" as="geometry"/>
                </mxCell>
                <mxCell id="20" value="群A" style="rounded=0;whiteSpace=wrap;html=1;fillColor=#f0a30a;fontColor=#f0efef;strokeColor=#BD7000;" vertex="1" parent="1">
                    <mxGeometry x="310" y="634" width="120" height="53" as="geometry"/>
                </mxCell>
            </root>
        </mxGraphModel>
    </diagram>
</mxfile>